<svg version="1.1" xmlns="http://www.w3.org/2000/svg" xmlns:xlink="http://www.w3.org/1999/xlink" preserveAspectRatio="xMidYMid meet" viewBox="409 378 126 108"><g data-item-type="image" data-item="Image" data-logo-item="" id="logo__item--logo_0" class="logo__item">
    <g class="logo__item__inner" transform="translate(398.0252411849172 358) scale(1.482158563781959 1.482158563781959) rotate(0 0 0)">
        

<g>
	<path fill="#231F20" d="M52.895,40.692" data-part-id="logo__item--logo_0__0"></path>
	<g>
		<path fill="#D44227" d="M50.884,29.144c0.374,0,0.779,0.043,1.224,0.133c0.441,0.094,0.846,0.268,1.22,0.527    c0.369,0.259,0.68,0.61,0.937,1.054c0.26,0.441,0.385,1.022,0.385,1.739v8.442l2.967-2.966v-6.121    c0-0.885-0.205-1.676-0.614-2.375c-0.413-0.705-0.944-1.298-1.593-1.794c-0.649-0.495-1.369-0.87-2.16-1.125    c-0.794-0.26-1.581-0.386-2.364-0.386c-0.759,0-1.546,0.118-2.348,0.37c-0.803,0.244-1.531,0.598-2.176,1.062    c-0.649,0.465-1.176,1.023-1.589,1.684c-0.414,0.661-0.622,1.412-0.622,2.258v18.308c0,0.413,0.146,0.763,0.437,1.053    c0.283,0.288,0.637,0.43,1.05,0.43c0.409,0,0.759-0.142,1.05-0.43c0.292-0.29,0.432-0.641,0.432-1.053V32.597    c0-0.716,0.127-1.298,0.386-1.739c0.256-0.444,0.566-0.795,0.941-1.054c0.373-0.26,0.774-0.433,1.215-0.527    C50.105,29.187,50.515,29.144,50.884,29.144z" data-part-id="logo__item--logo_0__1"></path>
	</g>
	<g>
		<radialGradient id="SVGID_13_" cx="76.7158" cy="12.1982" r="45.368" gradientUnits="userSpaceOnUse">
			<stop offset="0" style="stop-color:#929497"></stop>
			<stop offset="0.6727" style="stop-color:#404041"></stop>
			<stop offset="1" style="stop-color:#231F20"></stop>
		</radialGradient>
		<path fill="url(#SVGID_13_)" d="M69.156,36.924c0.26,0.26,0.511,0.583,0.763,0.96c0.244,0.377,0.41,0.791,0.492,1.235    c0.075,0.441,0.051,0.912-0.082,1.408c-0.127,0.495-0.449,0.999-0.956,1.502l-5.968,5.971h4.192l4.328-4.331    c0.625-0.625,1.038-1.334,1.247-2.12c0.2-0.787,0.247-1.582,0.141-2.392c-0.105-0.802-0.354-1.582-0.731-2.32    c-0.377-0.748-0.845-1.393-1.396-1.943c-0.543-0.543-1.18-1.007-1.923-1.4c-0.74-0.394-1.507-0.653-2.294-0.787    c-0.786-0.126-1.558-0.11-2.313,0.067c-0.759,0.177-1.433,0.563-2.03,1.16l-12.949,12.95c-0.292,0.287-0.441,0.637-0.441,1.046    c0,0.405,0.149,0.755,0.441,1.046c0.291,0.291,0.637,0.437,1.046,0.437c0.409,0,0.756-0.146,1.047-0.437l12.273-12.273    c0.511-0.511,1.014-0.826,1.506-0.959c0.495-0.13,0.968-0.157,1.412-0.079c0.441,0.079,0.854,0.249,1.231,0.496    C68.57,36.405,68.893,36.665,69.156,36.924z" data-part-id="logo__item--logo_0__2"></path>
	</g>
	<g>
		<path fill="#D44227" d="M76.528,55.573c0,0.37-0.048,0.776-0.143,1.221c-0.091,0.439-0.267,0.853-0.523,1.224    c-0.256,0.369-0.608,0.679-1.05,0.935c-0.44,0.26-1.022,0.39-1.742,0.39h-8.438l2.963,2.962h6.125    c0.881,0,1.676-0.203,2.376-0.617c0.699-0.413,1.297-0.94,1.789-1.589c0.495-0.65,0.874-1.369,1.129-2.16    c0.261-0.794,0.386-1.581,0.386-2.364c0-0.767-0.125-1.545-0.369-2.347c-0.248-0.804-0.605-1.527-1.067-2.181    c-0.463-0.645-1.022-1.176-1.684-1.589c-0.655-0.408-1.411-0.613-2.253-0.613H55.715c-0.413,0-0.764,0.141-1.051,0.429    c-0.29,0.288-0.433,0.641-0.433,1.05c0,0.412,0.143,0.764,0.433,1.055c0.287,0.282,0.638,0.428,1.051,0.428H73.07    c0.72,0,1.302,0.131,1.742,0.387c0.441,0.256,0.794,0.57,1.05,0.939c0.257,0.377,0.433,0.779,0.523,1.224    C76.48,54.799,76.528,55.201,76.528,55.573z" data-part-id="logo__item--logo_0__3"></path>
	</g>
	<g>
		<radialGradient id="SVGID_14_" cx="92.7529" cy="87.2471" r="58.1518" gradientUnits="userSpaceOnUse">
			<stop offset="0" style="stop-color:#929497"></stop>
			<stop offset="0.6727" style="stop-color:#404041"></stop>
			<stop offset="1" style="stop-color:#231F20"></stop>
		</radialGradient>
		<path fill="url(#SVGID_14_)" d="M68.543,73.688c-0.264,0.265-0.583,0.521-0.964,0.769c-0.374,0.247-0.791,0.408-1.231,0.49    c-0.444,0.08-0.913,0.056-1.408-0.078c-0.496-0.13-1-0.447-1.507-0.959l-5.968-5.968v4.188l4.332,4.336    c0.624,0.621,1.325,1.038,2.111,1.242c0.791,0.205,1.586,0.253,2.396,0.143c0.807-0.11,1.586-0.354,2.325-0.731    c0.744-0.379,1.393-0.842,1.943-1.401c0.543-0.535,1.007-1.171,1.396-1.919c0.397-0.739,0.656-1.508,0.787-2.294    c0.133-0.782,0.109-1.554-0.067-2.313c-0.173-0.76-0.559-1.437-1.156-2.034l-12.95-12.944c-0.291-0.296-0.637-0.438-1.046-0.438    s-0.755,0.142-1.047,0.44c-0.29,0.286-0.439,0.638-0.439,1.047c0.004,0.404,0.149,0.754,0.439,1.046l12.27,12.272    c0.508,0.513,0.83,1.011,0.964,1.503c0.125,0.495,0.157,0.968,0.075,1.412c-0.083,0.444-0.244,0.854-0.492,1.231    S68.803,73.429,68.543,73.688z" data-part-id="logo__item--logo_0__4"></path>
	</g>
	<g>
		<path fill="#D44227" d="M51.285,81.614c-0.44,0.091-0.846,0.139-1.219,0.139c-0.366,0-0.775-0.048-1.216-0.139    c-0.445-0.09-0.85-0.264-1.22-0.522c-0.37-0.259-0.684-0.61-0.944-1.055c-0.26-0.44-0.386-1.022-0.386-1.739v-8.441l-2.966,2.967    v6.12c0,0.885,0.205,1.676,0.617,2.377c0.413,0.699,0.94,1.297,1.59,1.794c0.648,0.495,1.372,0.872,2.164,1.125    c0.79,0.259,1.578,0.385,2.36,0.385c0.763,0,1.545-0.118,2.348-0.369c0.803-0.244,1.526-0.599,2.18-1.063    c0.645-0.465,1.176-1.022,1.589-1.684c0.409-0.661,0.618-1.409,0.618-2.259V60.942c0-0.417-0.146-0.762-0.434-1.053    c-0.286-0.292-0.633-0.433-1.05-0.433c-0.409,0-0.763,0.141-1.047,0.433c-0.291,0.291-0.436,0.636-0.436,1.053v17.355    c0,0.717-0.131,1.299-0.382,1.739" data-part-id="logo__item--logo_0__5"></path>
	</g>
	<g>
		<radialGradient id="SVGID_15_" cx="-0.3135" cy="85.1133" r="76.9606" gradientUnits="userSpaceOnUse">
			<stop offset="0" style="stop-color:#929497"></stop>
			<stop offset="0.6727" style="stop-color:#404041"></stop>
			<stop offset="1" style="stop-color:#231F20"></stop>
		</radialGradient>
		<path fill="url(#SVGID_15_)" d="M32.207,73.791c-0.264-0.264-0.519-0.583-0.767-0.96c-0.245-0.382-0.41-0.794-0.488-1.236    c-0.082-0.444-0.055-0.912,0.075-1.407s0.453-0.999,0.964-1.507l5.963-5.967h-4.193l-4.328,4.331    c-0.625,0.625-1.038,1.334-1.246,2.115c-0.201,0.787-0.248,1.586-0.138,2.393c0.106,0.806,0.354,1.585,0.732,2.324    c0.377,0.743,0.842,1.394,1.392,1.943c0.543,0.538,1.181,1.003,1.924,1.4c0.743,0.394,1.507,0.653,2.293,0.786    c0.787,0.131,1.558,0.103,2.313-0.07c0.759-0.173,1.436-0.559,2.034-1.156l12.946-12.946c0.296-0.294,0.44-0.641,0.44-1.05    s-0.145-0.755-0.44-1.046c-0.291-0.291-0.638-0.441-1.046-0.441c-0.41,0-0.76,0.15-1.046,0.441L37.317,74.007    c-0.511,0.508-1.015,0.829-1.502,0.965c-0.5,0.133-0.968,0.156-1.412,0.078c-0.444-0.083-0.854-0.244-1.232-0.495    C32.785,74.306,32.471,74.05,32.207,73.791z" data-part-id="logo__item--logo_0__6"></path>
	</g>
	<g>
		<path fill="#D44227" d="M24.32,55.57c0-0.369,0.05-0.779,0.141-1.221c0.095-0.439,0.267-0.849,0.523-1.219    c0.26-0.369,0.609-0.684,1.05-0.939c0.444-0.256,1.022-0.39,1.746-0.387h8.438l-2.962-2.961h-6.124    c-0.885,0-1.68,0.205-2.38,0.613c-0.696,0.41-1.294,0.945-1.79,1.589c-0.491,0.653-0.869,1.369-1.125,2.163    c-0.256,0.796-0.386,1.582-0.386,2.361c0,0.762,0.122,1.541,0.37,2.348c0.248,0.806,0.602,1.529,1.066,2.18    c0.464,0.648,1.022,1.176,1.684,1.589c0.657,0.414,1.408,0.617,2.253,0.617h18.312c0.414,0,0.764-0.141,1.05-0.432    c0.288-0.287,0.429-0.638,0.429-1.051c0-0.414-0.141-0.759-0.429-1.05c-0.287-0.287-0.637-0.433-1.05-0.433H27.781    c-0.724,0-1.302-0.127-1.746-0.387c-0.441-0.259-0.791-0.565-1.05-0.944c-0.256-0.369-0.429-0.774-0.523-1.219    C24.371,56.35,24.32,55.939,24.32,55.57z" data-part-id="logo__item--logo_0__7"></path>
	</g>
	<g>
		<radialGradient id="SVGID_16_" cx="39.6699" cy="12.9648" r="39.5282" gradientUnits="userSpaceOnUse">
			<stop offset="0" style="stop-color:#929497"></stop>
			<stop offset="0.6727" style="stop-color:#404041"></stop>
			<stop offset="1" style="stop-color:#231F20"></stop>
		</radialGradient>
		<path fill="url(#SVGID_16_)" d="M31.66,35.614c0.26-0.264,0.582-0.515,0.96-0.767c0.378-0.244,0.795-0.41,1.235-0.488    c0.441-0.083,0.913-0.055,1.408,0.074c0.496,0.13,1,0.453,1.507,0.965l5.967,5.963v-4.193l-4.331-4.328    c-0.625-0.629-1.329-1.039-2.116-1.243c-0.791-0.208-1.585-0.252-2.392-0.142c-0.807,0.105-1.585,0.35-2.325,0.728    c-0.744,0.381-1.388,0.845-1.943,1.396c-0.539,0.543-1.007,1.18-1.4,1.923c-0.394,0.744-0.653,1.506-0.787,2.294    c-0.126,0.786-0.106,1.558,0.07,2.313c0.173,0.755,0.555,1.436,1.157,2.03l12.95,12.95c0.291,0.291,0.637,0.439,1.046,0.439    c0.405,0,0.755-0.148,1.046-0.439c0.291-0.292,0.436-0.638,0.436-1.048c0-0.409-0.146-0.754-0.436-1.045L31.444,40.724    c-0.508-0.511-0.831-1.014-0.965-1.51c-0.129-0.496-0.157-0.959-0.074-1.408c0.083-0.44,0.244-0.849,0.492-1.235    C31.145,36.192,31.4,35.878,31.66,35.614z" data-part-id="logo__item--logo_0__8"></path>
	</g>
	<radialGradient id="SVGID_17_" cx="92.7539" cy="87.249" r="58.1615" gradientUnits="userSpaceOnUse">
		<stop offset="0" style="stop-color:#929497"></stop>
		<stop offset="0.6727" style="stop-color:#404041"></stop>
		<stop offset="1" style="stop-color:#231F20"></stop>
	</radialGradient>
	<path fill="url(#SVGID_17_)" d="M79.399,80.077c0,1.979-1.604,3.579-3.575,3.579c-1.975,0-3.576-1.601-3.576-3.579   c0-1.971,1.602-3.572,3.576-3.572C77.795,76.505,79.399,78.106,79.399,80.077z" data-part-id="logo__item--logo_0__9"></path>
	<path fill="#D44227" d="M90.729,55.573c0,1.972-1.605,3.575-3.58,3.575s-3.57-1.604-3.57-3.575c0-1.975,1.596-3.575,3.57-3.575   S90.729,53.599,90.729,55.573z" data-part-id="logo__item--logo_0__10"></path>
	<radialGradient id="SVGID_18_" cx="76.7158" cy="12.1982" r="45.3837" gradientUnits="userSpaceOnUse">
		<stop offset="0" style="stop-color:#929497"></stop>
		<stop offset="0.6727" style="stop-color:#404041"></stop>
		<stop offset="1" style="stop-color:#231F20"></stop>
	</radialGradient>
	<path fill="url(#SVGID_18_)" d="M79.399,29.844c0,1.975-1.604,3.58-3.575,3.58c-1.975,0-3.576-1.605-3.576-3.58   c0-1.975,1.602-3.572,3.576-3.572C77.795,26.272,79.399,27.869,79.399,29.844z" data-part-id="logo__item--logo_0__11"></path>
	<path fill="#D44227" d="M54.46,19.6c0,1.975-1.598,3.572-3.576,3.572c-1.978,0-3.575-1.597-3.575-3.572   c0-1.975,1.597-3.58,3.575-3.58C52.862,16.021,54.46,17.625,54.46,19.6z" data-part-id="logo__item--logo_0__12"></path>
	<radialGradient id="SVGID_19_" cx="39.6758" cy="12.9731" r="39.5138" gradientUnits="userSpaceOnUse">
		<stop offset="0" style="stop-color:#929497"></stop>
		<stop offset="0.6727" style="stop-color:#404041"></stop>
		<stop offset="1" style="stop-color:#231F20"></stop>
	</radialGradient>
	<path fill="url(#SVGID_19_)" d="M29.756,29.426c0,1.975-1.601,3.576-3.579,3.576c-1.975,0-3.572-1.601-3.572-3.576   c0-1.975,1.598-3.571,3.572-3.571C28.155,25.855,29.756,27.452,29.756,29.426z" data-part-id="logo__item--logo_0__13"></path>
	<path fill="#D44227" d="M16.917,54.225c0,1.975-1.601,3.572-3.572,3.572c-1.979,0-3.579-1.598-3.579-3.572   c0-1.976,1.601-3.58,3.579-3.58C15.316,50.645,16.917,52.249,16.917,54.225z" data-part-id="logo__item--logo_0__14"></path>
	<radialGradient id="SVGID_20_" cx="-0.3081" cy="85.1143" r="76.94" gradientUnits="userSpaceOnUse">
		<stop offset="0" style="stop-color:#929497"></stop>
		<stop offset="0.6727" style="stop-color:#404041"></stop>
		<stop offset="1" style="stop-color:#231F20"></stop>
	</radialGradient>
	<path fill="url(#SVGID_20_)" d="M28.6,80.077c0,1.979-1.598,3.579-3.572,3.579c-1.975,0-3.576-1.601-3.576-3.579   c0-1.971,1.601-3.572,3.576-3.572C27.002,76.505,28.6,78.106,28.6,80.077z" data-part-id="logo__item--logo_0__15"></path>
</g>

    </g>
</g></svg>