<?xml version="1.0" standalone="no"?>
<!DOCTYPE svg PUBLIC "-//W3C//DTD SVG 20010904//EN"
 "http://www.w3.org/TR/2001/REC-SVG-20010904/DTD/svg10.dtd">
<svg version="1.0" xmlns="http://www.w3.org/2000/svg"
 width="1008.000000pt" height="1008.000000pt" viewBox="0 0 1008.000000 1008.000000"
 preserveAspectRatio="xMidYMid meet">
<metadata>
Created by potrace 1.11, written by Peter Selinger 2001-2013
</metadata>
<g transform="translate(0.000000,1008.000000) scale(0.100000,-0.100000)"
fill="#000000" stroke="none">
<path d="M5147 9063 c-3 -3 -29 -7 -56 -9 -99 -7 -234 -95 -296 -195 -171
-269 23 -631 345 -644 47 -2 92 3 116 11 21 8 47 14 56 14 9 0 18 3 20 8 2 4
20 16 41 26 84 43 169 159 193 265 57 244 -107 484 -353 517 -26 3 -51 8 -54
10 -3 2 -9 1 -12 -3z"/>
<path d="M2198 7895 c-2 -2 -19 -5 -38 -8 -98 -15 -156 -45 -231 -119 -87 -86
-127 -185 -124 -308 2 -79 10 -109 46 -181 52 -105 158 -188 279 -219 45 -12
129 -15 165 -7 68 17 84 22 120 40 248 122 311 459 123 663 -38 41 -124 103
-150 108 -7 2 -31 8 -54 14 -39 11 -130 22 -136 17z"/>
<path d="M5097 7844 c-1 -1 -27 -5 -57 -8 -68 -8 -182 -35 -194 -47 -6 -5 -16
-9 -24 -9 -23 0 -153 -69 -209 -111 -144 -108 -226 -233 -250 -379 -10 -66 -9
-2263 2 -2301 44 -154 252 -172 326 -27 18 34 19 86 21 1145 l3 1108 29 60
c37 75 44 83 116 145 26 23 103 60 135 65 11 2 40 7 65 11 112 19 240 3 338
-44 29 -14 65 -38 80 -55 15 -16 35 -37 45 -45 9 -9 17 -22 17 -28 0 -6 6 -17
13 -23 16 -13 34 -68 43 -136 4 -27 7 -278 7 -557 0 -280 1 -508 2 -508 1 0
81 78 176 173 l174 173 -2 400 c0 219 -4 410 -7 424 -3 14 -9 39 -12 55 -24
111 -149 279 -269 361 -75 52 -285 146 -285 128 0 -2 -8 -1 -17 5 -28 14 -255
36 -266 25z"/>
<path d="M8050 7839 c-78 -16 -92 -20 -140 -47 -77 -43 -136 -106 -178 -190
-34 -71 -37 -82 -37 -166 0 -106 7 -141 39 -204 130 -254 467 -313 669 -116
38 37 99 122 103 144 0 3 3 12 6 20 43 112 23 272 -46 375 -29 44 -90 100
-146 136 -65 42 -191 64 -270 48z"/>
<path d="M3179 7236 c-2 -2 -27 -6 -55 -10 -115 -13 -274 -79 -383 -159 -81
-58 -191 -173 -213 -223 -6 -13 -14 -24 -18 -24 -8 0 -34 -52 -32 -62 1 -5 -2
-8 -7 -8 -5 0 -12 -10 -16 -22 -4 -13 -8 -25 -9 -28 -3 -5 -14 -31 -39 -92 -8
-20 -13 -39 -10 -42 3 -2 1 -11 -3 -18 -5 -7 -10 -20 -11 -28 -7 -40 -16 -129
-16 -165 0 -43 15 -159 23 -167 1 -2 3 -11 5 -21 2 -10 16 -44 31 -75 23 -49
142 -173 838 -869 480 -482 825 -820 846 -830 45 -21 76 -23 125 -6 50 17 83
47 105 96 19 42 18 113 -2 151 -6 12 -345 354 -752 762 -408 408 -756 758
-774 779 -82 97 -110 238 -70 355 32 96 126 213 220 278 92 63 135 77 238 77
58 -1 107 -6 125 -15 17 -7 32 -14 35 -14 15 -3 101 -71 137 -108 23 -24 188
-189 367 -368 l326 -325 0 249 0 250 -295 293 c-162 161 -302 293 -310 293 -8
0 -15 4 -15 9 0 10 -107 56 -168 71 -40 10 -216 22 -223 16z"/>
<path d="M6798 7076 c-26 -7 -50 -11 -53 -8 -3 3 -5 0 -5 -7 0 -7 -4 -10 -9
-6 -5 3 -12 1 -16 -5 -3 -5 -15 -10 -26 -10 -10 0 -19 -3 -19 -8 0 -4 -16 -16
-37 -27 -20 -11 -400 -383 -844 -828 -877 -876 -839 -834 -825 -932 6 -37 17
-56 50 -90 53 -53 116 -67 184 -40 32 13 212 187 809 784 794 792 816 812 909
827 159 26 273 -15 404 -145 113 -112 164 -229 153 -348 -3 -26 -5 -54 -6 -60
0 -7 -4 -13 -9 -13 -5 0 -6 -5 -3 -10 4 -6 -8 -36 -26 -68 -24 -41 -134 -158
-407 -431 -205 -205 -371 -375 -369 -377 3 -3 404 -7 468 -5 23 1 561 542 606
609 65 98 86 177 87 327 1 123 -14 236 -36 259 -4 6 -8 17 -8 26 0 34 -108
229 -132 238 -4 2 -8 9 -8 16 0 18 -127 137 -196 184 -106 71 -222 122 -339
148 -57 13 -249 13 -297 0z"/>
<path d="M2259 5166 c-2 -2 -17 -6 -34 -9 -70 -12 -95 -20 -95 -30 0 -6 -3 -8
-6 -4 -16 16 -138 -66 -218 -148 -111 -112 -202 -290 -222 -430 -1 -11 -3 -20
-4 -20 -5 0 -11 -71 -12 -140 -1 -78 6 -168 16 -196 3 -8 7 -25 10 -39 11 -63
92 -255 121 -286 5 -6 17 -22 25 -35 73 -111 220 -214 348 -244 65 -16 2275
-19 2334 -4 41 10 99 61 115 100 6 14 10 48 9 75 -2 63 -35 118 -90 146 l-41
22 -1080 1 c-594 1 -1100 5 -1125 9 -78 14 -184 84 -228 151 -49 76 -81 209
-75 310 12 196 86 320 231 388 l67 32 540 2 c297 1 546 2 553 2 16 1 26 -10
-176 194 l-157 157 -401 0 c-221 -1 -403 -2 -405 -4z"/>
<path d="M5665 5155 c-37 -13 -100 -73 -103 -98 -14 -96 -7 -130 42 -185 51
-58 -16 -55 1176 -57 855 -1 1105 -4 1139 -14 115 -33 217 -136 253 -256 28
-93 28 -255 0 -350 -37 -123 -151 -233 -272 -261 -19 -4 -276 -9 -570 -10
-294 -1 -536 -2 -538 -3 -1 0 76 -80 172 -175 l173 -175 393 1 c355 1 447 6
505 27 36 14 66 22 71 21 4 -1 10 2 13 7 3 5 25 20 49 33 23 13 42 27 42 32 0
4 5 8 10 8 23 0 155 147 189 210 53 99 95 204 107 266 25 134 24 279 -1 384
-9 36 -18 76 -21 90 -9 38 -102 227 -127 257 -118 144 -211 210 -349 251 -13
3 -538 8 -1168 9 -970 2 -1151 0 -1185 -12z"/>
<path d="M639 4949 c-26 -4 -56 -12 -68 -18 -11 -7 -21 -9 -21 -7 0 16 -93
-46 -142 -95 -51 -51 -124 -170 -111 -183 3 -2 1 -10 -3 -17 -7 -11 -12 -36
-14 -74 -1 -5 2 -39 5 -74 11 -123 107 -266 215 -321 115 -59 251 -68 355 -24
17 7 32 11 35 11 10 -3 94 65 133 107 32 35 74 107 83 141 2 6 6 21 9 35 13
49 13 152 0 201 -28 104 -93 197 -180 257 -73 49 -199 75 -296 61z"/>
<path d="M9389 4788 c-19 -4 -43 -9 -54 -12 -49 -10 -122 -53 -169 -101 -61
-61 -76 -81 -76 -95 0 -5 -3 -10 -8 -10 -14 0 -45 -120 -47 -185 -10 -273 238
-481 510 -430 48 10 135 53 182 91 39 32 104 114 110 139 1 6 12 36 23 68 50
142 -4 330 -128 439 -89 79 -235 120 -343 96z"/>
<path d="M5901 4577 c-42 -11 -77 -37 -106 -80 -17 -24 -22 -47 -23 -94 0 -35
4 -63 8 -63 5 0 10 -7 12 -15 2 -9 350 -363 774 -788 808 -809 819 -822 827
-915 2 -22 6 -43 9 -48 6 -9 4 -30 -7 -97 -25 -148 -181 -322 -341 -383 -100
-38 -202 -31 -303 19 -30 15 -168 145 -427 404 -211 210 -385 379 -387 375 -2
-4 -3 -115 -2 -247 l2 -240 249 -249 c324 -324 354 -349 459 -391 92 -38 270
-51 383 -31 40 8 150 43 174 57 10 5 25 9 33 9 8 0 15 4 15 8 0 5 16 14 35 22
19 8 35 17 35 22 0 4 5 8 10 8 23 0 131 89 197 162 82 92 184 275 198 358 0 3
7 30 15 60 13 51 18 251 7 290 -2 8 -7 29 -11 45 -4 17 -22 59 -39 94 -29 59
-111 143 -833 865 -440 441 -809 809 -820 818 -27 24 -101 37 -143 25z"/>
<path d="M5588 3881 c-89 -57 -83 40 -83 -1196 -1 -1002 -2 -1095 -18 -1148
-17 -55 -21 -60 -125 -137 -59 -43 -112 -83 -118 -88 -37 -32 -80 -42 -184
-42 -86 -1 -129 6 -196 30 -126 44 -220 150 -243 275 -4 24 -8 278 -9 565 0
287 -2 523 -4 526 -3 2 -82 -74 -177 -169 l-172 -172 4 -425 c3 -407 4 -427
25 -483 75 -202 264 -373 492 -445 62 -20 78 -23 160 -38 78 -13 225 -6 320
17 52 13 98 22 103 21 4 -1 7 2 7 8 0 5 9 10 20 10 24 0 162 72 215 113 103
79 190 190 220 277 1 3 4 12 8 20 3 8 9 29 13 45 4 17 9 545 10 1175 1 1244 4
1187 -54 1240 -64 59 -142 67 -214 21z"/>
<path d="M5046 3672 c-15 -9 -371 -359 -790 -777 -767 -767 -803 -800 -898
-825 -77 -21 -207 -9 -245 22 -7 6 -13 7 -13 4 0 -12 -113 71 -157 115 -23 22
-54 59 -70 82 -15 23 -31 44 -35 47 -3 3 -16 34 -28 69 -21 62 -27 145 -15
205 8 37 41 111 63 138 9 12 184 189 389 395 204 205 371 374 370 374 -9 6
-476 3 -490 -3 -21 -10 -538 -528 -572 -572 -64 -85 -102 -196 -110 -319 -3
-38 -7 -73 -10 -78 -4 -5 -3 -9 2 -9 4 0 9 -23 11 -50 7 -158 126 -400 257
-525 54 -52 107 -95 115 -95 4 0 18 -8 31 -18 44 -34 136 -80 205 -102 38 -12
76 -25 84 -28 51 -18 235 -23 309 -7 33 7 63 10 66 7 3 -3 5 0 5 6 0 7 6 12
14 12 19 0 106 49 140 79 91 82 1591 1589 1607 1615 36 60 19 161 -35 208 -55
49 -146 62 -200 30z"/>
<path d="M1979 1873 c-16 -7 -29 -10 -29 -7 0 3 -23 -7 -51 -23 -148 -81 -230
-215 -231 -377 -1 -121 36 -208 124 -298 87 -88 194 -130 313 -123 73 4 115
13 132 27 7 6 13 7 13 3 0 -15 98 51 142 96 79 82 119 182 119 299 0 74 -7
104 -41 178 -52 112 -162 199 -290 230 -57 13 -164 11 -201 -5z"/>
<path d="M8059 1886 c-2 -2 -21 -7 -42 -10 -56 -9 -146 -58 -198 -108 -81 -77
-124 -177 -128 -294 -6 -181 108 -344 284 -410 64 -23 166 -27 237 -9 270 69
402 366 273 615 -18 34 -113 140 -127 140 -5 0 -16 6 -24 14 -26 26 -128 58
-200 62 -39 2 -73 2 -75 0z"/>
</g>
</svg>
